STARTFONT 2.1
FONT -FontForge-Bitstream Vera Sans-Book-R-Normal-Sans--12-120-72-72-P-72-ISO10646-1
SIZE 12 72 72
FONTBOUNDINGBOX 14 13 -2 -3
COMMENT "Generated by fontforge, http://fontforge.sourceforge.net"
STARTPROPERTIES 27
FONT_NAME "BitstreamVeraSans-Roman"
FONT_ASCENT 9
FONT_DESCENT 3
UNDERLINE_POSITION -213
UNDERLINE_THICKNESS 143
QUAD_WIDTH 12
X_HEIGHT 9
CAP_HEIGHT 6
FONTNAME_REGISTRY ""
FAMILY_NAME "Bitstream Vera Sans"
FOUNDRY "FontForge"
WEIGHT_NAME "Book"
SETWIDTH_NAME "Normal"
SLANT "R"
ADD_STYLE_NAME "Sans-"
PIXEL_SIZE 12
POINT_SIZE 120
RESOLUTION_X 72
RESOLUTION_Y 72
RESOLUTION 72
SPACING "P"
AVERAGE_WIDTH 72
CHARSET_REGISTRY "ISO10646"
CHARSET_ENCODING "-1"
CHARSET_COLLECTIONS "ASCII ISO8859-9 ISO10646-1"
FULL_NAME "Bitstream Vera Sans"
COPYRIGHT "Copyright (c) 2003 by Bitstream, Inc. All Rights Reserved."
ENDPROPERTIES
CHARS 268
STARTCHAR space
ENCODING 32
SWIDTH 317 0
DWIDTH 4 0
BBX 1 1 0 0
BITMAP
00
ENDCHAR
STARTCHAR exclam
ENCODING 33
SWIDTH 400 0
DWIDTH 5 0
BBX 1 9 2 0
BITMAP
80
80
80
80
80
80
00
80
80
ENDCHAR
STARTCHAR quotedbl
ENCODING 34
SWIDTH 459 0
DWIDTH 6 0
BBX 3 3 1 6
BITMAP
A0
A0
A0
ENDCHAR
STARTCHAR numbersign
ENCODING 35
SWIDTH 837 0
DWIDTH 10 0
BBX 8 9 1 0
BITMAP
12
12
7F
24
24
FE
28
48
48
ENDCHAR
STARTCHAR dollar
ENCODING 36
SWIDTH 636 0
DWIDTH 8 0
BBX 6 12 1 -2
BITMAP
20
20
78
A0
A0
70
38
24
28
F8
20
20
ENDCHAR
STARTCHAR percent
ENCODING 37
SWIDTH 950 0
DWIDTH 11 0
BBX 10 9 1 0
BITMAP
E200
9200
9400
A400
4980
1240
1240
2240
2380
ENDCHAR
STARTCHAR ampersand
ENCODING 38
SWIDTH 779 0
DWIDTH 9 0
BBX 8 9 1 0
BITMAP
78
40
40
60
B3
9A
8E
C6
7B
ENDCHAR
STARTCHAR quotesingle
ENCODING 39
SWIDTH 274 0
DWIDTH 3 0
BBX 1 3 1 6
BITMAP
80
80
80
ENDCHAR
STARTCHAR parenleft
ENCODING 40
SWIDTH 390 0
DWIDTH 5 0
BBX 3 12 1 -2
BITMAP
20
40
40
80
80
80
80
80
80
40
40
20
ENDCHAR
STARTCHAR parenright
ENCODING 41
SWIDTH 390 0
DWIDTH 5 0
BBX 3 12 1 -2
BITMAP
80
40
40
40
60
60
60
60
40
40
40
80
ENDCHAR
STARTCHAR asterisk
ENCODING 42
SWIDTH 500 0
DWIDTH 6 0
BBX 4 4 1 4
BITMAP
D0
60
D0
40
ENDCHAR
STARTCHAR plus
ENCODING 43
SWIDTH 837 0
DWIDTH 10 0
BBX 8 8 1 0
BITMAP
08
08
08
FF
FF
08
08
08
ENDCHAR
STARTCHAR comma
ENCODING 44
SWIDTH 317 0
DWIDTH 4 0
BBX 2 3 1 -1
BITMAP
C0
C0
80
ENDCHAR
STARTCHAR hyphen
ENCODING 45
SWIDTH 360 0
DWIDTH 4 0
BBX 3 1 1 3
BITMAP
E0
ENDCHAR
STARTCHAR period
ENCODING 46
SWIDTH 317 0
DWIDTH 4 0
BBX 2 2 1 0
BITMAP
C0
C0
ENDCHAR
STARTCHAR slash
ENCODING 47
SWIDTH 336 0
DWIDTH 4 0
BBX 4 10 0 -1
BITMAP
10
10
20
20
20
40
40
40
80
80
ENDCHAR
STARTCHAR zero
ENCODING 48
SWIDTH 636 0
DWIDTH 8 0
BBX 6 9 1 0
BITMAP
78
88
8C
84
84
84
8C
C8
70
ENDCHAR
STARTCHAR one
ENCODING 49
SWIDTH 636 0
DWIDTH 8 0
BBX 6 9 1 0
BITMAP
F0
30
30
30
30
30
30
30
FC
ENDCHAR
STARTCHAR two
ENCODING 50
SWIDTH 636 0
DWIDTH 8 0
BBX 5 9 1 0
BITMAP
F8
08
08
08
10
30
60
C0
F8
ENDCHAR
STARTCHAR three
ENCODING 51
SWIDTH 636 0
DWIDTH 8 0
BBX 6 9 1 0
BITMAP
F8
08
08
78
38
0C
0C
08
F0
ENDCHAR
STARTCHAR four
ENCODING 52
SWIDTH 636 0
DWIDTH 8 0
BBX 6 9 1 0
BITMAP
18
28
48
48
88
88
FC
08
08
ENDCHAR
STARTCHAR five
ENCODING 53
SWIDTH 636 0
DWIDTH 8 0
BBX 6 9 1 0
BITMAP
F8
80
80
F8
08
0C
0C
08
F0
ENDCHAR
STARTCHAR six
ENCODING 54
SWIDTH 636 0
DWIDTH 8 0
BBX 6 9 1 0
BITMAP
78
C0
80
F8
CC
84
84
CC
78
ENDCHAR
STARTCHAR seven
ENCODING 55
SWIDTH 636 0
DWIDTH 8 0
BBX 6 9 1 0
BITMAP
FC
08
08
10
10
30
20
20
60
ENDCHAR
STARTCHAR eight
ENCODING 56
SWIDTH 636 0
DWIDTH 8 0
BBX 6 9 1 0
BITMAP
78
8C
8C
58
78
8C
84
8C
78
ENDCHAR
STARTCHAR nine
ENCODING 57
SWIDTH 636 0
DWIDTH 8 0
BBX 6 9 1 0
BITMAP
78
88
8C
8C
CC
74
08
08
F0
ENDCHAR
STARTCHAR colon
ENCODING 58
SWIDTH 336 0
DWIDTH 4 0
BBX 2 7 1 0
BITMAP
C0
C0
00
00
00
C0
C0
ENDCHAR
STARTCHAR semicolon
ENCODING 59
SWIDTH 336 0
DWIDTH 4 0
BBX 2 8 1 -1
BITMAP
C0
C0
00
00
00
C0
C0
80
ENDCHAR
STARTCHAR less
ENCODING 60
SWIDTH 837 0
DWIDTH 10 0
BBX 8 6 1 1
BITMAP
07
1C
E0
E0
1C
07
ENDCHAR
STARTCHAR equal
ENCODING 61
SWIDTH 837 0
DWIDTH 10 0
BBX 8 4 1 2
BITMAP
FF
00
00
FF
ENDCHAR
STARTCHAR greater
ENCODING 62
SWIDTH 837 0
DWIDTH 10 0
BBX 8 6 1 1
BITMAP
E0
38
07
07
38
E0
ENDCHAR
STARTCHAR question
ENCODING 63
SWIDTH 530 0
DWIDTH 6 0
BBX 5 9 1 0
BITMAP
F0
18
10
30
20
40
40
40
40
ENDCHAR
STARTCHAR at
ENCODING 64
SWIDTH 1000 0
DWIDTH 12 0
BBX 10 11 1 -2
BITMAP
1E00
6180
40C0
9C40
9240
A240
9240
9E80
4100
6000
3F00
ENDCHAR
STARTCHAR A
ENCODING 65
SWIDTH 684 0
DWIDTH 8 0
BBX 8 9 0 0
BITMAP
18
18
34
24
26
62
7E
43
C1
ENDCHAR
STARTCHAR B
ENCODING 66
SWIDTH 686 0
DWIDTH 8 0
BBX 6 9 1 0
BITMAP
F8
84
84
F8
FC
84
84
84
F8
ENDCHAR
STARTCHAR C
ENCODING 67
SWIDTH 698 0
DWIDTH 8 0
BBX 7 9 1 0
BITMAP
7E
C2
80
80
80
80
80
42
3C
ENDCHAR
STARTCHAR D
ENCODING 68
SWIDTH 770 0
DWIDTH 9 0
BBX 8 9 1 0
BITMAP
FC
86
82
82
83
82
82
86
F8
ENDCHAR
STARTCHAR E
ENCODING 69
SWIDTH 631 0
DWIDTH 8 0
BBX 6 9 1 0
BITMAP
FC
80
80
80
FC
80
80
80
FC
ENDCHAR
STARTCHAR F
ENCODING 70
SWIDTH 575 0
DWIDTH 7 0
BBX 5 9 1 0
BITMAP
F8
80
80
F8
F8
80
80
80
80
ENDCHAR
STARTCHAR G
ENCODING 71
SWIDTH 774 0
DWIDTH 9 0
BBX 7 9 1 0
BITMAP
7E
C0
80
80
8E
82
82
42
3C
ENDCHAR
STARTCHAR H
ENCODING 72
SWIDTH 751 0
DWIDTH 9 0
BBX 7 9 1 0
BITMAP
82
82
82
82
FE
82
82
82
82
ENDCHAR
STARTCHAR I
ENCODING 73
SWIDTH 294 0
DWIDTH 4 0
BBX 1 9 1 0
BITMAP
80
80
80
80
80
80
80
80
80
ENDCHAR
STARTCHAR J
ENCODING 74
SWIDTH 294 0
DWIDTH 4 0
BBX 3 12 -1 -3
BITMAP
20
20
20
20
20
20
20
20
20
20
E0
80
ENDCHAR
STARTCHAR K
ENCODING 75
SWIDTH 655 0
DWIDTH 8 0
BBX 7 9 1 0
BITMAP
8C
98
B0
E0
E0
B0
98
8C
86
ENDCHAR
STARTCHAR L
ENCODING 76
SWIDTH 557 0
DWIDTH 7 0
BBX 6 9 1 0
BITMAP
80
80
80
80
80
80
80
80
FC
ENDCHAR
STARTCHAR M
ENCODING 77
SWIDTH 862 0
DWIDTH 10 0
BBX 8 9 1 0
BITMAP
C3
A3
A5
A5
95
99
99
81
81
ENDCHAR
STARTCHAR N
ENCODING 78
SWIDTH 748 0
DWIDTH 9 0
BBX 7 9 1 0
BITMAP
C2
E2
A2
B2
92
9A
8A
8E
86
ENDCHAR
STARTCHAR O
ENCODING 79
SWIDTH 787 0
DWIDTH 9 0
BBX 8 9 1 0
BITMAP
7C
C2
83
83
83
83
82
46
3C
ENDCHAR
STARTCHAR P
ENCODING 80
SWIDTH 603 0
DWIDTH 7 0
BBX 6 9 1 0
BITMAP
F8
8C
84
8C
F8
80
80
80
80
ENDCHAR
STARTCHAR Q
ENCODING 81
SWIDTH 787 0
DWIDTH 9 0
BBX 8 10 1 -1
BITMAP
7C
C2
83
83
83
83
82
46
3C
04
ENDCHAR
STARTCHAR R
ENCODING 82
SWIDTH 694 0
DWIDTH 8 0
BBX 7 9 1 0
BITMAP
F8
8C
84
8C
F8
88
84
84
86
ENDCHAR
STARTCHAR S
ENCODING 83
SWIDTH 634 0
DWIDTH 8 0
BBX 6 9 1 0
BITMAP
F8
80
80
C0
38
0C
04
0C
F8
ENDCHAR
STARTCHAR T
ENCODING 84
SWIDTH 610 0
DWIDTH 7 0
BBX 7 9 0 0
BITMAP
FE
10
10
10
10
10
10
10
10
ENDCHAR
STARTCHAR U
ENCODING 85
SWIDTH 731 0
DWIDTH 9 0
BBX 7 9 1 0
BITMAP
82
82
82
82
82
82
86
C4
78
ENDCHAR
STARTCHAR V
ENCODING 86
SWIDTH 684 0
DWIDTH 8 0
BBX 8 9 0 0
BITMAP
C1
42
42
62
24
24
1C
18
18
ENDCHAR
STARTCHAR W
ENCODING 87
SWIDTH 988 0
DWIDTH 12 0
BBX 10 9 1 0
BITMAP
8C40
8C40
8C40
94C0
5280
5280
5280
6380
6100
ENDCHAR
STARTCHAR X
ENCODING 88
SWIDTH 685 0
DWIDTH 8 0
BBX 7 9 1 0
BITMAP
C4
4C
28
30
30
38
48
C4
86
ENDCHAR
STARTCHAR Y
ENCODING 89
SWIDTH 610 0
DWIDTH 7 0
BBX 7 9 0 0
BITMAP
C2
44
2C
38
10
10
10
10
10
ENDCHAR
STARTCHAR Z
ENCODING 90
SWIDTH 685 0
DWIDTH 8 0
BBX 7 9 1 0
BITMAP
FE
0C
08
10
30
60
40
80
FE
ENDCHAR
STARTCHAR bracketleft
ENCODING 91
SWIDTH 390 0
DWIDTH 5 0
BBX 3 12 1 -2
BITMAP
E0
80
80
80
80
80
80
80
80
80
80
E0
ENDCHAR
STARTCHAR backslash
ENCODING 92
SWIDTH 336 0
DWIDTH 4 0
BBX 4 10 0 -1
BITMAP
80
40
40
40
40
20
20
20
10
10
ENDCHAR
STARTCHAR bracketright
ENCODING 93
SWIDTH 390 0
DWIDTH 5 0
BBX 3 12 1 -2
BITMAP
E0
20
20
20
20
20
20
20
20
20
20
E0
ENDCHAR
STARTCHAR asciicircum
ENCODING 94
SWIDTH 837 0
DWIDTH 10 0
BBX 6 3 2 6
BITMAP
30
48
84
ENDCHAR
STARTCHAR underscore
ENCODING 95
SWIDTH 500 0
DWIDTH 6 0
BBX 6 1 0 -3
BITMAP
FC
ENDCHAR
STARTCHAR grave
ENCODING 96
SWIDTH 500 0
DWIDTH 6 0
BBX 1 2 2 8
BITMAP
80
80
ENDCHAR
STARTCHAR a
ENCODING 97
SWIDTH 612 0
DWIDTH 7 0
BBX 5 7 1 0
BITMAP
F0
08
08
F8
88
88
F8
ENDCHAR
STARTCHAR b
ENCODING 98
SWIDTH 634 0
DWIDTH 8 0
BBX 6 10 1 0
BITMAP
80
80
80
B8
CC
84
84
84
CC
B8
ENDCHAR
STARTCHAR c
ENCODING 99
SWIDTH 549 0
DWIDTH 7 0
BBX 5 7 1 0
BITMAP
78
C0
80
80
80
C0
78
ENDCHAR
STARTCHAR d
ENCODING 100
SWIDTH 634 0
DWIDTH 8 0
BBX 6 10 1 0
BITMAP
0C
0C
0C
7C
8C
8C
8C
8C
8C
7C
ENDCHAR
STARTCHAR e
ENCODING 101
SWIDTH 615 0
DWIDTH 7 0
BBX 6 7 1 0
BITMAP
78
88
84
FC
80
C4
7C
ENDCHAR
STARTCHAR f
ENCODING 102
SWIDTH 352 0
DWIDTH 4 0
BBX 4 10 0 0
BITMAP
30
60
40
F0
40
40
40
40
40
40
ENDCHAR
STARTCHAR g
ENCODING 103
SWIDTH 634 0
DWIDTH 8 0
BBX 6 10 1 -3
BITMAP
7C
8C
8C
8C
8C
8C
7C
08
98
70
ENDCHAR
STARTCHAR h
ENCODING 104
SWIDTH 633 0
DWIDTH 8 0
BBX 6 10 1 0
BITMAP
80
80
80
B8
C8
8C
84
84
84
84
ENDCHAR
STARTCHAR i
ENCODING 105
SWIDTH 277 0
DWIDTH 3 0
BBX 1 10 1 0
BITMAP
80
80
00
80
80
80
80
80
80
80
ENDCHAR
STARTCHAR j
ENCODING 106
SWIDTH 277 0
DWIDTH 3 0
BBX 2 13 0 -3
BITMAP
40
40
00
40
40
40
40
40
40
40
40
40
80
ENDCHAR
STARTCHAR k
ENCODING 107
SWIDTH 579 0
DWIDTH 7 0
BBX 5 10 1 0
BITMAP
80
80
80
88
90
A0
C0
A0
90
88
ENDCHAR
STARTCHAR l
ENCODING 108
SWIDTH 277 0
DWIDTH 3 0
BBX 1 10 1 0
BITMAP
80
80
80
80
80
80
80
80
80
80
ENDCHAR
STARTCHAR m
ENCODING 109
SWIDTH 974 0
DWIDTH 12 0
BBX 10 7 1 0
BITMAP
BB80
CCC0
8840
8840
8840
8840
8840
ENDCHAR
STARTCHAR n
ENCODING 110
SWIDTH 633 0
DWIDTH 8 0
BBX 6 7 1 0
BITMAP
B8
C8
84
84
84
84
84
ENDCHAR
STARTCHAR o
ENCODING 111
SWIDTH 611 0
DWIDTH 7 0
BBX 6 7 1 0
BITMAP
78
88
8C
84
8C
88
70
ENDCHAR
STARTCHAR p
ENCODING 112
SWIDTH 634 0
DWIDTH 8 0
BBX 6 9 1 -2
BITMAP
B8
CC
84
84
84
CC
B8
80
80
ENDCHAR
STARTCHAR q
ENCODING 113
SWIDTH 634 0
DWIDTH 8 0
BBX 6 10 1 -3
BITMAP
7C
8C
8C
8C
8C
8C
7C
0C
0C
0C
ENDCHAR
STARTCHAR r
ENCODING 114
SWIDTH 411 0
DWIDTH 5 0
BBX 4 7 1 0
BITMAP
B0
C0
80
80
80
80
80
ENDCHAR
STARTCHAR s
ENCODING 115
SWIDTH 520 0
DWIDTH 6 0
BBX 5 7 1 0
BITMAP
F0
80
80
70
18
18
F0
ENDCHAR
STARTCHAR t
ENCODING 116
SWIDTH 392 0
DWIDTH 5 0
BBX 4 9 0 0
BITMAP
40
40
F0
40
40
40
40
40
30
ENDCHAR
STARTCHAR u
ENCODING 117
SWIDTH 633 0
DWIDTH 8 0
BBX 5 7 1 0
BITMAP
88
88
88
88
88
88
78
ENDCHAR
STARTCHAR v
ENCODING 118
SWIDTH 591 0
DWIDTH 7 0
BBX 6 7 1 0
BITMAP
8C
88
88
58
50
50
20
ENDCHAR
STARTCHAR w
ENCODING 119
SWIDTH 817 0
DWIDTH 10 0
BBX 8 7 1 0
BITMAP
99
99
99
AA
66
66
66
ENDCHAR
STARTCHAR x
ENCODING 120
SWIDTH 591 0
DWIDTH 7 0
BBX 5 7 1 0
BITMAP
88
58
70
20
50
D8
88
ENDCHAR
STARTCHAR y
ENCODING 121
SWIDTH 591 0
DWIDTH 7 0
BBX 6 10 1 -3
BITMAP
8C
88
88
50
50
70
20
20
60
C0
ENDCHAR
STARTCHAR z
ENCODING 122
SWIDTH 524 0
DWIDTH 6 0
BBX 5 7 1 0
BITMAP
F8
10
30
60
40
80
F8
ENDCHAR
STARTCHAR braceleft
ENCODING 123
SWIDTH 636 0
DWIDTH 8 0
BBX 4 12 2 -2
BITMAP
30
60
40
40
40
40
C0
40
40
40
40
30
ENDCHAR
STARTCHAR bar
ENCODING 124
SWIDTH 336 0
DWIDTH 4 0
BBX 1 13 2 -3
BITMAP
80
80
80
80
80
80
80
80
80
80
80
80
80
ENDCHAR
STARTCHAR braceright
ENCODING 125
SWIDTH 636 0
DWIDTH 8 0
BBX 5 12 1 -2
BITMAP
C0
20
20
20
20
30
18
20
20
20
20
E0
ENDCHAR
STARTCHAR asciitilde
ENCODING 126
SWIDTH 837 0
DWIDTH 10 0
BBX 8 2 1 3
BITMAP
71
8E
ENDCHAR
STARTCHAR nonbreakingspace
ENCODING 160
SWIDTH 636 0
DWIDTH 8 0
BBX 1 1 0 0
BITMAP
00
ENDCHAR
STARTCHAR exclamdown
ENCODING 161
SWIDTH 400 0
DWIDTH 5 0
BBX 1 9 2 0
BITMAP
80
00
00
80
80
80
80
80
80
ENDCHAR
STARTCHAR cent
ENCODING 162
SWIDTH 636 0
DWIDTH 8 0
BBX 5 11 1 -2
BITMAP
10
10
78
50
90
90
90
D0
78
10
10
ENDCHAR
STARTCHAR sterling
ENCODING 163
SWIDTH 636 0
DWIDTH 8 0
BBX 6 9 1 0
BITMAP
38
60
40
40
F8
40
40
40
FC
ENDCHAR
STARTCHAR currency
ENCODING 164
SWIDTH 636 0
DWIDTH 8 0
BBX 6 6 1 1
BITMAP
BC
48
88
88
48
B4
ENDCHAR
STARTCHAR yen
ENCODING 165
SWIDTH 636 0
DWIDTH 8 0
BBX 6 9 1 0
BITMAP
84
C8
48
FC
30
FC
20
20
20
ENDCHAR
STARTCHAR brokenbar
ENCODING 166
SWIDTH 336 0
DWIDTH 4 0
BBX 1 11 2 -2
BITMAP
80
80
80
80
80
00
80
80
80
80
80
ENDCHAR
STARTCHAR section
ENCODING 167
SWIDTH 500 0
DWIDTH 6 0
BBX 4 10 1 -1
BITMAP
F0
80
C0
A0
90
90
70
30
10
F0
ENDCHAR
STARTCHAR dieresis
ENCODING 168
SWIDTH 500 0
DWIDTH 6 0
BBX 4 2 1 8
BITMAP
90
90
ENDCHAR
STARTCHAR copyright
ENCODING 169
SWIDTH 1000 0
DWIDTH 12 0
BBX 9 9 1 0
BITMAP
1E00
6100
5E80
A080
A080
9080
5E80
2100
1E00
ENDCHAR
STARTCHAR ordfeminine
ENCODING 170
SWIDTH 471 0
DWIDTH 6 0
BBX 4 6 1 3
BITMAP
F0
10
F0
90
F0
F0
ENDCHAR
STARTCHAR guillemotleft
ENCODING 171
SWIDTH 611 0
DWIDTH 7 0
BBX 5 5 1 1
BITMAP
68
D0
B0
48
20
ENDCHAR
STARTCHAR logicalnot
ENCODING 172
SWIDTH 837 0
DWIDTH 10 0
BBX 8 3 1 2
BITMAP
FF
01
01
ENDCHAR
STARTCHAR sfthyphen
ENCODING 173
SWIDTH 360 0
DWIDTH 4 0
BBX 3 1 1 3
BITMAP
E0
ENDCHAR
STARTCHAR registered
ENCODING 174
SWIDTH 1000 0
DWIDTH 12 0
BBX 9 9 1 0
BITMAP
1E00
6100
5E80
9280
9C80
9280
5280
2100
1E00
ENDCHAR
STARTCHAR macron
ENCODING 175
SWIDTH 500 0
DWIDTH 6 0
BBX 4 1 1 9
BITMAP
F0
ENDCHAR
STARTCHAR degree
ENCODING 176
SWIDTH 500 0
DWIDTH 6 0
BBX 4 4 1 5
BITMAP
F0
90
90
60
ENDCHAR
STARTCHAR plusminus
ENCODING 177
SWIDTH 837 0
DWIDTH 10 0
BBX 8 8 1 0
BITMAP
08
08
FF
08
08
08
00
FF
ENDCHAR
STARTCHAR twosuperior
ENCODING 178
SWIDTH 400 0
DWIDTH 5 0
BBX 3 5 1 4
BITMAP
60
20
40
80
E0
ENDCHAR
STARTCHAR threesuperior
ENCODING 179
SWIDTH 400 0
DWIDTH 5 0
BBX 3 5 1 4
BITMAP
60
20
60
20
E0
ENDCHAR
STARTCHAR acute
ENCODING 180
SWIDTH 500 0
DWIDTH 6 0
BBX 1 2 3 8
BITMAP
80
80
ENDCHAR
STARTCHAR mu
ENCODING 181
SWIDTH 636 0
DWIDTH 8 0
BBX 6 10 1 -3
BITMAP
88
88
88
88
88
88
F4
80
80
80
ENDCHAR
STARTCHAR paragraph
ENCODING 182
SWIDTH 636 0
DWIDTH 8 0
BBX 5 9 1 0
BITMAP
78
E8
E8
E8
68
28
28
28
28
ENDCHAR
STARTCHAR periodcentered
ENCODING 183
SWIDTH 317 0
DWIDTH 4 0
BBX 2 1 1 4
BITMAP
C0
ENDCHAR
STARTCHAR cedilla
ENCODING 184
SWIDTH 500 0
DWIDTH 6 0
BBX 1 2 3 -2
BITMAP
80
80
ENDCHAR
STARTCHAR onesuperior
ENCODING 185
SWIDTH 400 0
DWIDTH 5 0
BBX 3 5 1 4
BITMAP
C0
40
40
40
E0
ENDCHAR
STARTCHAR ordmasculine
ENCODING 186
SWIDTH 471 0
DWIDTH 6 0
BBX 4 6 1 3
BITMAP
F0
90
90
90
60
F0
ENDCHAR
STARTCHAR guillemotright
ENCODING 187
SWIDTH 611 0
DWIDTH 7 0
BBX 5 5 1 1
BITMAP
90
48
28
50
80
ENDCHAR
STARTCHAR onequarter
ENCODING 188
SWIDTH 969 0
DWIDTH 12 0
BBX 10 9 1 0
BITMAP
4100
4200
4400
4400
E880
0980
1280
23C0
2000
ENDCHAR
STARTCHAR onehalf
ENCODING 189
SWIDTH 969 0
DWIDTH 12 0
BBX 10 9 1 0
BITMAP
4100
4200
4400
4400
EBC0
0840
1080
2100
23C0
ENDCHAR
STARTCHAR threequarters
ENCODING 190
SWIDTH 969 0
DWIDTH 12 0
BBX 10 9 1 0
BITMAP
6100
2200
6400
2400
E880
0980
1280
23C0
2000
ENDCHAR
STARTCHAR questiondown
ENCODING 191
SWIDTH 530 0
DWIDTH 6 0
BBX 5 9 1 0
BITMAP
20
00
20
20
60
C0
80
88
70
ENDCHAR
STARTCHAR Agrave
ENCODING 192
SWIDTH 684 0
DWIDTH 8 0
BBX 8 12 0 0
BITMAP
10
08
00
18
18
34
24
26
62
7E
43
C1
ENDCHAR
STARTCHAR Aacute
ENCODING 193
SWIDTH 684 0
DWIDTH 8 0
BBX 8 12 0 0
BITMAP
08
10
00
18
18
34
24
26
62
7E
43
C1
ENDCHAR
STARTCHAR Acircumflex
ENCODING 194
SWIDTH 684 0
DWIDTH 8 0
BBX 8 12 0 0
BITMAP
18
04
00
18
18
34
24
26
62
7E
43
C1
ENDCHAR
STARTCHAR Atilde
ENCODING 195
SWIDTH 684 0
DWIDTH 8 0
BBX 8 12 0 0
BITMAP
14
28
00
18
18
34
24
26
62
7E
43
C1
ENDCHAR
STARTCHAR Adieresis
ENCODING 196
SWIDTH 684 0
DWIDTH 8 0
BBX 8 12 0 0
BITMAP
34
34
00
18
18
34
24
26
62
7E
43
C1
ENDCHAR
STARTCHAR Aring
ENCODING 197
SWIDTH 684 0
DWIDTH 8 0
BBX 8 12 0 0
BITMAP
18
24
24
18
18
34
24
26
62
7E
43
C1
ENDCHAR
STARTCHAR AE
ENCODING 198
SWIDTH 974 0
DWIDTH 12 0
BBX 11 9 0 0
BITMAP
1FE0
1400
1400
2400
27E0
6400
7C00
4400
87E0
ENDCHAR
STARTCHAR Ccedilla
ENCODING 199
SWIDTH 698 0
DWIDTH 8 0
BBX 7 12 1 -3
BITMAP
7E
C2
80
80
80
80
80
42
3C
08
28
10
ENDCHAR
STARTCHAR Egrave
ENCODING 200
SWIDTH 631 0
DWIDTH 8 0
BBX 6 12 1 0
BITMAP
20
10
00
FC
80
80
80
FC
80
80
80
FC
ENDCHAR
STARTCHAR Eacute
ENCODING 201
SWIDTH 631 0
DWIDTH 8 0
BBX 6 12 1 0
BITMAP
10
20
00
FC
80
80
80
FC
80
80
80
FC
ENDCHAR
STARTCHAR Ecircumflex
ENCODING 202
SWIDTH 631 0
DWIDTH 8 0
BBX 6 12 1 0
BITMAP
30
48
00
FC
80
80
80
FC
80
80
80
FC
ENDCHAR
STARTCHAR Edieresis
ENCODING 203
SWIDTH 631 0
DWIDTH 8 0
BBX 6 12 1 0
BITMAP
58
58
00
FC
80
80
80
FC
80
80
80
FC
ENDCHAR
STARTCHAR Igrave
ENCODING 204
SWIDTH 294 0
DWIDTH 4 0
BBX 1 12 1 0
BITMAP
80
80
00
80
80
80
80
80
80
80
80
80
ENDCHAR
STARTCHAR Iacute
ENCODING 205
SWIDTH 294 0
DWIDTH 4 0
BBX 2 12 1 0
BITMAP
40
80
00
80
80
80
80
80
80
80
80
80
ENDCHAR
STARTCHAR Icircumflex
ENCODING 206
SWIDTH 294 0
DWIDTH 4 0
BBX 3 12 0 0
BITMAP
60
80
00
40
40
40
40
40
40
40
40
40
ENDCHAR
STARTCHAR Idieresis
ENCODING 207
SWIDTH 294 0
DWIDTH 4 0
BBX 4 12 0 0
BITMAP
B0
B0
00
40
40
40
40
40
40
40
40
40
ENDCHAR
STARTCHAR Eth
ENCODING 208
SWIDTH 774 0
DWIDTH 9 0
BBX 9 9 0 0
BITMAP
7E00
4300
4100
4180
F180
4180
4100
4300
7C00
ENDCHAR
STARTCHAR Ntilde
ENCODING 209
SWIDTH 748 0
DWIDTH 9 0
BBX 7 12 1 0
BITMAP
30
08
00
C2
E2
A2
B2
92
9A
8A
8E
86
ENDCHAR
STARTCHAR Ograve
ENCODING 210
SWIDTH 787 0
DWIDTH 9 0
BBX 8 12 1 0
BITMAP
30
10
00
7C
C2
83
83
83
83
82
46
3C
ENDCHAR
STARTCHAR Oacute
ENCODING 211
SWIDTH 787 0
DWIDTH 9 0
BBX 8 12 1 0
BITMAP
08
10
00
7C
C2
83
83
83
83
82
46
3C
ENDCHAR
STARTCHAR Ocircumflex
ENCODING 212
SWIDTH 787 0
DWIDTH 9 0
BBX 8 12 1 0
BITMAP
10
28
00
7C
C2
83
83
83
83
82
46
3C
ENDCHAR
STARTCHAR Otilde
ENCODING 213
SWIDTH 787 0
DWIDTH 9 0
BBX 8 12 1 0
BITMAP
04
38
00
7C
C2
83
83
83
83
82
46
3C
ENDCHAR
STARTCHAR Odieresis
ENCODING 214
SWIDTH 787 0
DWIDTH 9 0
BBX 8 12 1 0
BITMAP
28
28
00
7C
C2
83
83
83
83
82
46
3C
ENDCHAR
STARTCHAR multiply
ENCODING 215
SWIDTH 837 0
DWIDTH 10 0
BBX 6 6 2 1
BITMAP
84
48
30
30
48
84
ENDCHAR
STARTCHAR Oslash
ENCODING 216
SWIDTH 787 0
DWIDTH 9 0
BBX 8 9 1 0
BITMAP
7E
C2
86
8B
91
A3
C2
46
BC
ENDCHAR
STARTCHAR Ugrave
ENCODING 217
SWIDTH 731 0
DWIDTH 9 0
BBX 7 12 1 0
BITMAP
20
10
00
82
82
82
82
82
82
86
C4
78
ENDCHAR
STARTCHAR Uacute
ENCODING 218
SWIDTH 731 0
DWIDTH 9 0
BBX 7 12 1 0
BITMAP
18
10
00
82
82
82
82
82
82
86
C4
78
ENDCHAR
STARTCHAR Ucircumflex
ENCODING 219
SWIDTH 731 0
DWIDTH 9 0
BBX 7 12 1 0
BITMAP
10
28
00
82
82
82
82
82
82
86
C4
78
ENDCHAR
STARTCHAR Udieresis
ENCODING 220
SWIDTH 731 0
DWIDTH 9 0
BBX 7 12 1 0
BITMAP
28
28
00
82
82
82
82
82
82
86
C4
78
ENDCHAR
STARTCHAR Yacute
ENCODING 221
SWIDTH 610 0
DWIDTH 7 0
BBX 7 12 0 0
BITMAP
08
10
00
C2
44
2C
38
10
10
10
10
10
ENDCHAR
STARTCHAR Thorn
ENCODING 222
SWIDTH 604 0
DWIDTH 7 0
BBX 6 9 1 0
BITMAP
80
F0
88
8C
84
8C
F8
80
80
ENDCHAR
STARTCHAR germandbls
ENCODING 223
SWIDTH 629 0
DWIDTH 8 0
BBX 6 10 1 0
BITMAP
30
C8
88
90
A0
90
88
84
84
B8
ENDCHAR
STARTCHAR agrave
ENCODING 224
SWIDTH 612 0
DWIDTH 7 0
BBX 5 10 1 0
BITMAP
40
20
00
F0
08
08
F8
88
88
F8
ENDCHAR
STARTCHAR aacute
ENCODING 225
SWIDTH 612 0
DWIDTH 7 0
BBX 5 10 1 0
BITMAP
10
20
00
F0
08
08
F8
88
88
F8
ENDCHAR
STARTCHAR acircumflex
ENCODING 226
SWIDTH 612 0
DWIDTH 7 0
BBX 5 10 1 0
BITMAP
20
50
00
F0
08
08
F8
88
88
F8
ENDCHAR
STARTCHAR atilde
ENCODING 227
SWIDTH 612 0
DWIDTH 7 0
BBX 5 10 1 0
BITMAP
60
10
00
F0
08
08
F8
88
88
F8
ENDCHAR
STARTCHAR adieresis
ENCODING 228
SWIDTH 612 0
DWIDTH 7 0
BBX 5 10 1 0
BITMAP
50
50
00
F0
08
08
F8
88
88
F8
ENDCHAR
STARTCHAR aring
ENCODING 229
SWIDTH 612 0
DWIDTH 7 0
BBX 5 11 1 0
BITMAP
70
50
70
00
F0
08
08
F8
88
88
F8
ENDCHAR
STARTCHAR ae
ENCODING 230
SWIDTH 981 0
DWIDTH 12 0
BBX 10 7 1 0
BITMAP
F780
0C40
0840
FFC0
8800
8C00
F7C0
ENDCHAR
STARTCHAR ccedilla
ENCODING 231
SWIDTH 549 0
DWIDTH 7 0
BBX 5 9 1 -2
BITMAP
78
C0
80
80
80
C0
78
10
10
ENDCHAR
STARTCHAR egrave
ENCODING 232
SWIDTH 615 0
DWIDTH 7 0
BBX 6 10 1 0
BITMAP
40
20
00
78
88
84
FC
80
C4
7C
ENDCHAR
STARTCHAR eacute
ENCODING 233
SWIDTH 615 0
DWIDTH 7 0
BBX 6 10 1 0
BITMAP
10
20
00
78
88
84
FC
80
C4
7C
ENDCHAR
STARTCHAR ecircumflex
ENCODING 234
SWIDTH 615 0
DWIDTH 7 0
BBX 6 10 1 0
BITMAP
30
50
00
78
88
84
FC
80
C4
7C
ENDCHAR
STARTCHAR edieresis
ENCODING 235
SWIDTH 615 0
DWIDTH 7 0
BBX 6 10 1 0
BITMAP
58
58
00
78
88
84
FC
80
C4
7C
ENDCHAR
STARTCHAR igrave
ENCODING 236
SWIDTH 277 0
DWIDTH 3 0
BBX 2 10 0 0
BITMAP
80
40
00
40
40
40
40
40
40
40
ENDCHAR
STARTCHAR iacute
ENCODING 237
SWIDTH 277 0
DWIDTH 3 0
BBX 2 10 1 0
BITMAP
40
80
00
80
80
80
80
80
80
80
ENDCHAR
STARTCHAR icircumflex
ENCODING 238
SWIDTH 277 0
DWIDTH 3 0
BBX 3 10 0 0
BITMAP
60
A0
00
40
40
40
40
40
40
40
ENDCHAR
STARTCHAR idieresis
ENCODING 239
SWIDTH 277 0
DWIDTH 3 0
BBX 3 10 0 0
BITMAP
A0
A0
00
40
40
40
40
40
40
40
ENDCHAR
STARTCHAR eth
ENCODING 240
SWIDTH 611 0
DWIDTH 7 0
BBX 6 10 1 0
BITMAP
48
30
D0
78
88
8C
84
8C
88
70
ENDCHAR
STARTCHAR ntilde
ENCODING 241
SWIDTH 633 0
DWIDTH 8 0
BBX 6 10 1 0
BITMAP
68
50
00
B8
C8
84
84
84
84
84
ENDCHAR
STARTCHAR ograve
ENCODING 242
SWIDTH 611 0
DWIDTH 7 0
BBX 6 10 1 0
BITMAP
40
20
00
78
88
8C
84
8C
88
70
ENDCHAR
STARTCHAR oacute
ENCODING 243
SWIDTH 611 0
DWIDTH 7 0
BBX 6 10 1 0
BITMAP
10
20
00
78
88
8C
84
8C
88
70
ENDCHAR
STARTCHAR ocircumflex
ENCODING 244
SWIDTH 611 0
DWIDTH 7 0
BBX 6 10 1 0
BITMAP
30
50
00
78
88
8C
84
8C
88
70
ENDCHAR
STARTCHAR otilde
ENCODING 245
SWIDTH 611 0
DWIDTH 7 0
BBX 6 10 1 0
BITMAP
68
50
00
78
88
8C
84
8C
88
70
ENDCHAR
STARTCHAR odieresis
ENCODING 246
SWIDTH 611 0
DWIDTH 7 0
BBX 6 10 1 0
BITMAP
50
50
00
78
88
8C
84
8C
88
70
ENDCHAR
STARTCHAR divide
ENCODING 247
SWIDTH 837 0
DWIDTH 10 0
BBX 8 6 1 1
BITMAP
18
18
00
FF
00
18
ENDCHAR
STARTCHAR oslash
ENCODING 248
SWIDTH 611 0
DWIDTH 7 0
BBX 6 7 1 0
BITMAP
74
88
9C
A4
CC
C8
F0
ENDCHAR
STARTCHAR ugrave
ENCODING 249
SWIDTH 633 0
DWIDTH 8 0
BBX 5 10 1 0
BITMAP
40
20
00
88
88
88
88
88
88
78
ENDCHAR
STARTCHAR uacute
ENCODING 250
SWIDTH 633 0
DWIDTH 8 0
BBX 5 10 1 0
BITMAP
10
20
00
88
88
88
88
88
88
78
ENDCHAR
STARTCHAR ucircumflex
ENCODING 251
SWIDTH 633 0
DWIDTH 8 0
BBX 5 10 1 0
BITMAP
30
50
00
88
88
88
88
88
88
78
ENDCHAR
STARTCHAR udieresis
ENCODING 252
SWIDTH 633 0
DWIDTH 8 0
BBX 5 10 1 0
BITMAP
50
50
00
88
88
88
88
88
88
78
ENDCHAR
STARTCHAR yacute
ENCODING 253
SWIDTH 591 0
DWIDTH 7 0
BBX 6 13 1 -3
BITMAP
10
20
00
8C
88
88
50
50
70
20
20
60
C0
ENDCHAR
STARTCHAR thorn
ENCODING 254
SWIDTH 634 0
DWIDTH 8 0
BBX 6 12 1 -2
BITMAP
80
80
80
B8
CC
84
84
84
CC
B8
80
80
ENDCHAR
STARTCHAR ydieresis
ENCODING 255
SWIDTH 591 0
DWIDTH 7 0
BBX 6 13 1 -3
BITMAP
50
50
00
8C
88
88
50
50
70
20
20
60
C0
ENDCHAR
STARTCHAR Cacute
ENCODING 262
SWIDTH 698 0
DWIDTH 8 0
BBX 7 12 1 0
BITMAP
08
10
00
7E
C2
80
80
80
80
80
42
3C
ENDCHAR
STARTCHAR cacute
ENCODING 263
SWIDTH 549 0
DWIDTH 7 0
BBX 5 10 1 0
BITMAP
10
20
00
78
C0
80
80
80
C0
78
ENDCHAR
STARTCHAR Ccaron
ENCODING 268
SWIDTH 698 0
DWIDTH 8 0
BBX 7 12 1 0
BITMAP
20
18
00
7E
C2
80
80
80
80
80
42
3C
ENDCHAR
STARTCHAR ccaron
ENCODING 269
SWIDTH 549 0
DWIDTH 7 0
BBX 5 10 1 0
BITMAP
50
30
00
78
C0
80
80
80
C0
78
ENDCHAR
STARTCHAR dcroat
ENCODING 273
SWIDTH 634 0
DWIDTH 8 0
BBX 6 10 1 0
BITMAP
0C
1C
0C
7C
8C
8C
8C
8C
8C
7C
ENDCHAR
STARTCHAR Gbreve
ENCODING 286
SWIDTH 774 0
DWIDTH 9 0
BBX 7 12 1 0
BITMAP
20
38
00
7E
C0
80
80
8E
82
82
42
3C
ENDCHAR
STARTCHAR gbreve
ENCODING 287
SWIDTH 634 0
DWIDTH 8 0
BBX 6 13 1 -3
BITMAP
48
30
00
7C
8C
8C
8C
8C
8C
7C
08
98
70
ENDCHAR
STARTCHAR Idotaccent
ENCODING 304
SWIDTH 294 0
DWIDTH 4 0
BBX 1 12 1 0
BITMAP
80
80
00
80
80
80
80
80
80
80
80
80
ENDCHAR
STARTCHAR dotlessi
ENCODING 305
SWIDTH 277 0
DWIDTH 3 0
BBX 1 7 1 0
BITMAP
80
80
80
80
80
80
80
ENDCHAR
STARTCHAR Lslash
ENCODING 321
SWIDTH 562 0
DWIDTH 7 0
BBX 7 9 0 0
BITMAP
40
40
48
70
60
C0
40
40
7E
ENDCHAR
STARTCHAR lslash
ENCODING 322
SWIDTH 284 0
DWIDTH 3 0
BBX 3 10 0 0
BITMAP
40
40
40
40
60
C0
40
40
40
40
ENDCHAR
STARTCHAR OE
ENCODING 338
SWIDTH 1069 0
DWIDTH 13 0
BBX 11 9 1 0
BITMAP
7FE0
C600
8600
87E0
87E0
8600
8600
6600
3FE0
ENDCHAR
STARTCHAR oe
ENCODING 339
SWIDTH 1022 0
DWIDTH 12 0
BBX 11 7 1 0
BITMAP
7380
8C40
8C20
8FE0
8C00
8C00
73C0
ENDCHAR
STARTCHAR Scedilla
ENCODING 350
SWIDTH 634 0
DWIDTH 8 0
BBX 6 11 1 -2
BITMAP
F8
80
80
C0
38
0C
04
0C
F8
10
10
ENDCHAR
STARTCHAR scedilla
ENCODING 351
SWIDTH 520 0
DWIDTH 6 0
BBX 5 9 1 -2
BITMAP
F0
80
80
70
18
18
F0
20
20
ENDCHAR
STARTCHAR Scaron
ENCODING 352
SWIDTH 634 0
DWIDTH 8 0
BBX 6 12 1 0
BITMAP
40
30
00
F8
80
80
C0
38
0C
04
0C
F8
ENDCHAR
STARTCHAR scaron
ENCODING 353
SWIDTH 520 0
DWIDTH 6 0
BBX 5 10 1 0
BITMAP
50
60
00
F0
80
80
70
18
18
F0
ENDCHAR
STARTCHAR Ydieresis
ENCODING 376
SWIDTH 610 0
DWIDTH 7 0
BBX 7 12 0 0
BITMAP
28
28
00
C2
44
2C
38
10
10
10
10
10
ENDCHAR
STARTCHAR Zcaron
ENCODING 381
SWIDTH 685 0
DWIDTH 8 0
BBX 7 12 1 0
BITMAP
08
30
00
FE
0C
08
10
30
60
40
80
FE
ENDCHAR
STARTCHAR zcaron
ENCODING 382
SWIDTH 524 0
DWIDTH 6 0
BBX 5 10 1 0
BITMAP
50
60
00
F8
10
30
60
40
80
F8
ENDCHAR
STARTCHAR florin
ENCODING 402
SWIDTH 636 0
DWIDTH 8 0
BBX 7 13 1 -3
BITMAP
0E
18
10
10
10
7C
30
20
20
20
20
40
80
ENDCHAR
STARTCHAR circumflex
ENCODING 710
SWIDTH 500 0
DWIDTH 6 0
BBX 4 2 1 8
BITMAP
60
90
ENDCHAR
STARTCHAR caron
ENCODING 711
SWIDTH 500 0
DWIDTH 6 0
BBX 2 1 2 8
BITMAP
C0
ENDCHAR
STARTCHAR breve
ENCODING 728
SWIDTH 500 0
DWIDTH 6 0
BBX 4 2 1 8
BITMAP
90
60
ENDCHAR
STARTCHAR dotaccent
ENCODING 729
SWIDTH 500 0
DWIDTH 6 0
BBX 2 2 2 8
BITMAP
C0
C0
ENDCHAR
STARTCHAR ring
ENCODING 730
SWIDTH 500 0
DWIDTH 6 0
BBX 4 3 1 8
BITMAP
60
90
60
ENDCHAR
STARTCHAR ogonek
ENCODING 731
SWIDTH 500 0
DWIDTH 6 0
BBX 1 2 2 -2
BITMAP
80
80
ENDCHAR
STARTCHAR tilde
ENCODING 732
SWIDTH 500 0
DWIDTH 6 0
BBX 4 2 1 8
BITMAP
D0
A0
ENDCHAR
STARTCHAR hungarumlaut
ENCODING 733
SWIDTH 500 0
DWIDTH 6 0
BBX 3 2 2 8
BITMAP
A0
80
ENDCHAR
STARTCHAR Omega
ENCODING 937
SWIDTH 764 0
DWIDTH 9 0
BBX 9 9 0 0
BITMAP
3E00
6300
4100
4180
4180
4100
4100
2200
F780
ENDCHAR
STARTCHAR pi
ENCODING 960
SWIDTH 588 0
DWIDTH 7 0
BBX 7 7 0 0
BITMAP
7E
A4
6C
48
48
48
4C
ENDCHAR
STARTCHAR endash
ENCODING 8211
SWIDTH 500 0
DWIDTH 6 0
BBX 6 1 0 3
BITMAP
FC
ENDCHAR
STARTCHAR emdash
ENCODING 8212
SWIDTH 1000 0
DWIDTH 12 0
BBX 12 1 0 3
BITMAP
FFF0
ENDCHAR
STARTCHAR quoteleft
ENCODING 8216
SWIDTH 317 0
DWIDTH 4 0
BBX 2 3 1 6
BITMAP
40
80
80
ENDCHAR
STARTCHAR quoteright
ENCODING 8217
SWIDTH 317 0
DWIDTH 4 0
BBX 2 3 1 6
BITMAP
40
80
80
ENDCHAR
STARTCHAR quotesinglbase
ENCODING 8218
SWIDTH 317 0
DWIDTH 4 0
BBX 2 3 1 -1
BITMAP
C0
C0
80
ENDCHAR
STARTCHAR quotedblleft
ENCODING 8220
SWIDTH 518 0
DWIDTH 6 0
BBX 4 3 1 6
BITMAP
50
90
B0
ENDCHAR
STARTCHAR quotedblright
ENCODING 8221
SWIDTH 518 0
DWIDTH 6 0
BBX 4 3 1 6
BITMAP
D0
90
A0
ENDCHAR
STARTCHAR quotedblbase
ENCODING 8222
SWIDTH 518 0
DWIDTH 6 0
BBX 4 3 1 -1
BITMAP
D0
D0
90
ENDCHAR
STARTCHAR dagger
ENCODING 8224
SWIDTH 500 0
DWIDTH 6 0
BBX 6 10 0 -1
BITMAP
30
30
FC
30
30
30
30
30
30
30
ENDCHAR
STARTCHAR daggerdbl
ENCODING 8225
SWIDTH 500 0
DWIDTH 6 0
BBX 6 10 0 -1
BITMAP
30
30
FC
30
30
30
30
FC
30
30
ENDCHAR
STARTCHAR bullet
ENCODING 8226
SWIDTH 589 0
DWIDTH 7 0
BBX 3 4 2 3
BITMAP
40
E0
E0
E0
ENDCHAR
STARTCHAR ellipsis
ENCODING 8230
SWIDTH 1000 0
DWIDTH 12 0
BBX 10 2 1 0
BITMAP
CCC0
CCC0
ENDCHAR
STARTCHAR perthousand
ENCODING 8240
SWIDTH 1341 0
DWIDTH 16 0
BBX 14 9 1 0
BITMAP
E200
9200
9400
A400
499C
1254
1264
2264
239C
ENDCHAR
STARTCHAR guilsinglleft
ENCODING 8249
SWIDTH 399 0
DWIDTH 5 0
BBX 3 5 1 1
BITMAP
60
C0
80
40
20
ENDCHAR
STARTCHAR guilsinglright
ENCODING 8250
SWIDTH 399 0
DWIDTH 5 0
BBX 3 5 1 1
BITMAP
80
40
20
40
80
ENDCHAR
STARTCHAR Euro
ENCODING 8364
SWIDTH 636 0
DWIDTH 8 0
BBX 7 9 0 0
BITMAP
3E
20
60
FC
40
F8
60
22
1C
ENDCHAR
STARTCHAR trademark
ENCODING 8482
SWIDTH 1000 0
DWIDTH 12 0
BBX 6 3 3 6
BITMAP
B4
AC
A0
ENDCHAR
STARTCHAR partialdiff
ENCODING 8706
SWIDTH 517 0
DWIDTH 6 0
BBX 5 8 1 0
BITMAP
70
10
08
E8
98
90
90
A0
ENDCHAR
STARTCHAR Delta
ENCODING 8710
SWIDTH 668 0
DWIDTH 8 0
BBX 8 9 0 0
BITMAP
18
18
34
24
24
42
42
43
FF
ENDCHAR
STARTCHAR product
ENCODING 8719
SWIDTH 756 0
DWIDTH 9 0
BBX 7 11 1 -2
BITMAP
FE
82
82
82
82
82
82
82
82
82
82
ENDCHAR
STARTCHAR summation
ENCODING 8721
SWIDTH 673 0
DWIDTH 8 0
BBX 8 11 0 -2
BITMAP
FF
60
20
10
18
0C
08
10
20
60
FF
ENDCHAR
STARTCHAR minus
ENCODING 8722
SWIDTH 837 0
DWIDTH 10 0
BBX 8 2 1 3
BITMAP
FF
FF
ENDCHAR
STARTCHAR fraction
ENCODING 8725
SWIDTH 166 0
DWIDTH 2 0
BBX 6 9 -2 0
BITMAP
04
08
08
10
20
20
40
40
80
ENDCHAR
STARTCHAR periodcentered
ENCODING 8729
SWIDTH 317 0
DWIDTH 4 0
BBX 2 1 1 4
BITMAP
C0
ENDCHAR
STARTCHAR radical
ENCODING 8730
SWIDTH 637 0
DWIDTH 8 0
BBX 7 10 0 0
BITMAP
02
02
04
04
C8
68
28
30
10
10
ENDCHAR
STARTCHAR infinity
ENCODING 8734
SWIDTH 833 0
DWIDTH 10 0
BBX 8 5 1 1
BITMAP
6E
99
91
9A
64
ENDCHAR
STARTCHAR integral
ENCODING 8747
SWIDTH 520 0
DWIDTH 6 0
BBX 6 12 0 -2
BITMAP
08
14
10
10
10
10
10
30
30
20
20
E0
ENDCHAR
STARTCHAR approxequal
ENCODING 8776
SWIDTH 837 0
DWIDTH 10 0
BBX 8 4 1 2
BITMAP
79
8E
71
DE
ENDCHAR
STARTCHAR notequal
ENCODING 8800
SWIDTH 837 0
DWIDTH 10 0
BBX 8 8 1 0
BITMAP
02
06
FF
08
10
FF
60
40
ENDCHAR
STARTCHAR lessequal
ENCODING 8804
SWIDTH 837 0
DWIDTH 10 0
BBX 8 7 1 0
BITMAP
07
78
E0
3C
07
00
FF
ENDCHAR
STARTCHAR greaterequal
ENCODING 8805
SWIDTH 837 0
DWIDTH 10 0
BBX 8 7 1 0
BITMAP
E0
1E
07
3C
E0
00
FF
ENDCHAR
STARTCHAR lozenge
ENCODING 9674
SWIDTH 494 0
DWIDTH 6 0
BBX 6 11 0 -2
BITMAP
30
50
48
88
84
84
88
48
50
30
30
ENDCHAR
STARTCHAR fi
ENCODING 64257
SWIDTH 629 0
DWIDTH 8 0
BBX 6 10 0 0
BITMAP
34
64
40
FC
44
44
44
44
44
44
ENDCHAR
STARTCHAR fl
ENCODING 64258
SWIDTH 629 0
DWIDTH 8 0
BBX 6 10 0 0
BITMAP
3C
64
44
F4
44
44
44
44
44
44
ENDCHAR
STARTCHAR .notdef
ENCODING -1
SWIDTH 600 0
DWIDTH 7 0
BBX 7 12 0 -3
BITMAP
7E
82
82
82
82
82
82
82
82
82
82
7C
ENDCHAR
STARTCHAR .null
ENCODING -1
SWIDTH 0 0
DWIDTH 0 0
BBX 1 1 0 0
BITMAP
00
ENDCHAR
STARTCHAR nonmarkingreturn
ENCODING -1
SWIDTH 317 0
DWIDTH 4 0
BBX 1 1 0 0
BITMAP
00
ENDCHAR
STARTCHAR c6459
ENCODING -1
SWIDTH 500 0
DWIDTH 6 0
BBX 4 1 1 8
BITMAP
90
ENDCHAR
STARTCHAR c6460
ENCODING -1
SWIDTH 500 0
DWIDTH 6 0
BBX 1 2 3 8
BITMAP
80
80
ENDCHAR
STARTCHAR c6461
ENCODING -1
SWIDTH 500 0
DWIDTH 6 0
BBX 4 1 1 8
BITMAP
F0
ENDCHAR
STARTCHAR c6462
ENCODING -1
SWIDTH 500 0
DWIDTH 6 0
BBX 1 2 2 8
BITMAP
80
80
ENDCHAR
STARTCHAR c6463
ENCODING -1
SWIDTH 500 0
DWIDTH 6 0
BBX 2 2 2 8
BITMAP
C0
C0
ENDCHAR
STARTCHAR c6466
ENCODING -1
SWIDTH 500 0
DWIDTH 6 0
BBX 4 2 1 8
BITMAP
90
60
ENDCHAR
STARTCHAR c6467
ENCODING -1
SWIDTH 400 0
DWIDTH 5 0
BBX 4 5 0 4
BITMAP
30
50
90
F0
10
ENDCHAR
STARTCHAR c6468
ENCODING -1
SWIDTH 500 0
DWIDTH 6 0
BBX 4 2 1 8
BITMAP
90
60
ENDCHAR
STARTCHAR c6469
ENCODING -1
SWIDTH 500 0
DWIDTH 6 0
BBX 2 1 2 8
BITMAP
C0
ENDCHAR
ENDFONT
